<svg width="24" height="24" viewBox="0 0 24 24" fill="none" xmlns="http://www.w3.org/2000/svg">
<rect width="24" height="24" fill="#E5E5E5"/>
<rect width="720" height="740" transform="translate(-84 -80)" fill="white"/>
<rect x="-24" y="-18" width="600" height="60" rx="30" fill="#F1F2F2"/>
<path fill-rule="evenodd" clip-rule="evenodd" d="M10 1.75C14.9706 1.75 19 5.77944 19 10.75C19 12.6937 18.3838 14.4936 17.3361 15.9648L22.7782 21.4069C23.364 21.9926 23.364 22.9424 22.7782 23.5282C22.1924 24.114 21.2426 24.114 20.6569 23.5282L15.2148 18.0861C13.7436 19.1338 11.9437 19.75 10 19.75C5.02944 19.75 1 15.7206 1 10.75C1 5.77944 5.02944 1.75 10 1.75ZM10 17.25C13.5899 17.25 16.5 14.3399 16.5 10.75C16.5 7.16015 13.5899 4.25 10 4.25C6.41015 4.25 3.5 7.16015 3.5 10.75C3.5 14.3399 6.41015 17.25 10 17.25Z" fill="black" fill-opacity="0.2"/>
</svg>
